<svg xmlns="http://www.w3.org/2000/svg" version="1.1" xmlns:xlink="http://www.w3.org/1999/xlink" width="512" height="512" x="0" y="0" viewBox="0 0 4.233 4.233" style="enable-background:new 0 0 512 512" xml:space="preserve" class=""><g><path d="M2.053.265c-.294.001-.568.013-.818.03-.504.038-.904.44-.939.945a12.339 12.339 0 0 0 0 1.758c.038.505.44.905.945.94.585.041 1.172.041 1.757 0 .505-.038.905-.44.94-.945.042-.586.041-1.174 0-1.76a1.016 1.016 0 0 0-.945-.937 12.332 12.332 0 0 0-.94-.031zm.203.907a.789.789 0 0 1 .796.911l-.013.078-.155-.024.012-.078a.631.631 0 0 0-.721-.722l-.078.013-.025-.156.079-.013a.793.793 0 0 1 .105-.01zm-.787.003a.079.079 0 0 1 .076.02l.344.345a.079.079 0 0 1 0 .11l-.07.071a.153.153 0 0 0-.02.193c.136.207.313.384.52.52.062.04.142.032.193-.02l.07-.07a.079.079 0 0 1 .112 0l.345.344a.079.079 0 0 1 0 .112l-.121.12a.484.484 0 0 1-.601.067 3.464 3.464 0 0 1-1.07-1.07.485.485 0 0 1 .066-.602l.12-.12a.079.079 0 0 1 .036-.02zm.794.312a.474.474 0 0 1 .48.538l-.012.078-.156-.022.01-.077a.314.314 0 0 0-.355-.356l-.079.012-.021-.158.078-.01a.462.462 0 0 1 .055-.005z" paint-order="stroke markers fill" fill="#ff0000" opacity="1" data-original="#000000" class=""></path></g></svg>