<svg xmlns="http://www.w3.org/2000/svg" xmlns:xlink="http://www.w3.org/1999/xlink" xmlns:svgjs="http://svgjs.com/svgjs" id="SvgjsSvg1022" width="288" height="288" version="1.1"><defs id="SvgjsDefs1023"/><g id="SvgjsG1024"><svg xmlns="http://www.w3.org/2000/svg" fill-rule="evenodd" stroke-linejoin="round" stroke-miterlimit="2" clip-rule="evenodd" viewBox="0 0 267 267" width="288" height="288"><path d="M12.5,133.333c0,-3.368 1.795,-6.83 5.776,-9.929c5.704,-4.44 16.674,-8.547 31.429,-11.753l-15.333,-15.333c-12.495,-12.495 -12.495,-32.784 0,-45.279c12.495,-12.495 32.784,-12.495 45.28,-0l1.598,1.598l1.598,-1.598c12.496,-12.495 32.785,-12.495 45.28,-0c12.495,12.495 12.495,32.784 -0,45.279l-8.006,8.006c4.337,-0.104 8.745,-0.157 13.211,-0.157c1.825,-0 3.639,0.009 5.444,0.027l30.295,-80.194c3.088,-8.175 12.081,-12.452 20.371,-9.689l0.01,0.004c4.618,1.539 8.309,5.056 10.069,9.595c1.76,4.538 1.405,9.625 -0.968,13.875l-37.465,67.096c17.481,0.915 33.457,2.672 46.965,5.05l-17.505,-17.505c-6.842,-6.842 -6.842,-17.952 -0,-24.794c6.592,-6.592 17.147,-6.833 24.028,-0.721c6.882,-6.112 17.436,-5.871 24.028,0.721c6.842,6.842 6.842,17.952 0,24.794l-19.674,19.674c7.774,1.753 14.404,3.738 19.63,5.898c5.703,2.356 9.861,4.997 12.321,7.679c2.252,2.456 3.285,5.06 3.285,7.656c-0,66.69 -54.144,120.834 -120.834,120.834c-66.689,-0 -120.833,-54.144 -120.833,-120.834Zm139.269,-28.855l39.509,-70.756c1.163,-2.083 1.337,-4.575 0.474,-6.8c-0.862,-2.224 -2.671,-3.947 -4.934,-4.702l-0.01,-0.003c-4.045,-1.348 -8.433,0.739 -9.94,4.728l-29.175,77.228c0.541,-0.029 1.084,0.048 1.597,0.227c0.829,0.024 1.656,0.05 2.479,0.078Zm-130.294,40.928c6.031,56.423 53.846,100.427 111.858,100.427c58.012,0 105.828,-44.004 111.859,-100.427c-1.901,1.129 -4.116,2.224 -6.631,3.263c-19.727,8.151 -59.457,13.831 -105.228,13.831c-45.771,0 -85.5,-5.68 -105.227,-13.831c-2.515,-1.039 -4.73,-2.134 -6.631,-3.263Zm80.572,7.851c4.822,0.288 9.771,0.51 14.826,0.663c0.969,-8.611 5.101,-17.702 10.008,-25.667c1.437,-2.334 2.936,-4.571 4.425,-6.668c-16.027,10.809 -25.26,24.602 -29.259,31.672Zm23.19,0.85c2.286,0.034 4.59,0.053 6.91,0.058l7.221,-29.514c-1.797,2.445 -3.642,5.131 -5.392,7.972c-4.122,6.692 -7.778,14.249 -8.739,21.484Zm15.501,0.01c1.822,-0.024 3.633,-0.058 5.431,-0.1c0.386,-5.321 0.947,-15.224 0.632,-24.681l-6.063,24.781Zm13.804,-0.362c2.744,-0.108 5.454,-0.237 8.126,-0.386c0.245,-13.823 -3.724,-23.987 -7.907,-30.812c0.916,10.982 0.265,24.182 -0.219,31.198Zm41.9,-67.222l18.135,18.136l18.136,-18.136c3.59,-3.589 3.59,-9.418 -0,-13.008c-3.59,-3.59 -9.419,-3.59 -13.009,-0l-2.181,2.181c-0.781,0.781 -1.841,1.22 -2.946,1.22c-1.105,0 -2.165,-0.439 -2.946,-1.22l-2.181,-2.181c-3.59,-3.59 -9.419,-3.59 -13.008,-0c-3.59,3.59 -3.59,9.419 -0,13.008Zm-115.192,-23.836c-1.128,-0 -2.182,-0.456 -2.949,-1.223c-0.042,-0.042 -0.083,-0.084 -0.123,-0.127l-4.419,-4.416c-9.243,-9.243 -24.251,-9.243 -33.494,0c-9.243,9.243 -9.243,24.252 -0,33.495l40.985,40.985l40.985,-40.985c9.243,-9.243 9.243,-24.252 0,-33.495c-9.243,-9.243 -24.251,-9.243 -33.494,0l-4.545,4.545l-2.946,1.221Zm-0,8.512c6.449,-5.517 16.174,-5.225 22.276,0.877c6.409,6.408 6.409,16.814 0,23.222l-19.33,19.33c-1.627,1.627 -4.265,1.627 -5.892,0l-19.33,-19.33c-6.409,-6.408 -6.409,-16.814 -0,-23.222c6.102,-6.102 15.827,-6.394 22.276,-0.877Zm135.824,103.712c1.194,-1.966 3.759,-2.593 5.724,-1.399c1.966,1.193 2.593,3.758 1.4,5.724c-1.947,3.207 -4.04,6.318 -6.268,9.321c-1.371,1.847 -3.983,2.234 -5.829,0.864c-1.847,-1.371 -2.234,-3.982 -0.864,-5.829c2.075,-2.797 4.024,-5.694 5.837,-8.681Zm-15.539,20.093c1.602,-1.65 4.243,-1.689 5.892,-0.087c1.65,1.602 1.689,4.243 0.087,5.892c-14.213,14.637 -32.096,25.689 -52.157,31.668c-2.204,0.657 -4.527,-0.599 -5.183,-2.803c-0.657,-2.204 0.599,-4.526 2.803,-5.183c18.677,-5.567 35.326,-15.86 48.558,-29.487Z" fill="#c7892c" class="svgShape color000000-0 selectable"/></svg></g></svg>