<svg xmlns="http://www.w3.org/2000/svg" xmlns:xlink="http://www.w3.org/1999/xlink" xmlns:svgjs="http://svgjs.com/svgjs" id="SvgjsSvg1001" width="288" height="288" version="1.1"><defs id="SvgjsDefs1002"/><g id="SvgjsG1008"><svg xmlns="http://www.w3.org/2000/svg" viewBox="0 0 512 512" width="288" height="288"><path d="M472.812 329.772c0-33.816-16.411-65.813-43.9-85.588a10 10 0 0 0-11.68 0c-30.865 22.205-48.849 60.543-42.679 102.168l-29.355-29.354c22.526-20.212 35.69-49.032 35.69-79.149 0-33.816-16.411-65.812-43.9-85.589a10 10 0 0 0-11.68 0c-30.835 22.184-48.854 60.508-42.679 102.169l-29.355-29.355c22.526-20.211 35.69-49.031 35.69-79.149 0-33.518-16.129-65.239-43.182-85.055l-34.269-34.269c-3.905-3.905-10.237-3.905-14.143 0-3.905 3.905-3.905 10.237 0 14.143l26.935 26.935a105.871 105.871 0 0 0-28.753 43.126c-24.422-24.915-58.61-35.584-92.015-30.133a10 10 0 0 0-8.259 8.259c-5.31 32.545 4.933 66.94 29.698 91.584a105.86 105.86 0 0 0-41.782 28.274L56.26 181.855c-3.905-3.905-10.237-3.905-14.143 0-3.905 3.905-3.905 10.237 0 14.143l34.268 34.268c39.422 53.822 118.623 57.935 162.738 8.944l27.553 27.552c-38.227-4.987-76.399 11.753-98.901 43.029a10 10 0 0 0 0 11.68c39.143 54.408 118.894 58.944 163.272 9.663l27.553 27.552c-38.229-4.987-76.398 11.754-98.901 43.029a10 10 0 0 0 0 11.68c39.15 54.417 118.9 58.938 163.272 9.663l21.313 21.312c3.907 3.905 10.236 3.904 14.143 0 3.905-3.905 3.905-10.237 0-14.143l-21.306-21.306c22.526-20.211 35.691-49.031 35.691-79.149zm-155.715-41.057c-10.265-14.72-15.69-32.309-15.69-50.866 0-24.912 10.998-48.607 29.741-64.752 18.743 16.145 29.74 39.84 29.74 64.752 0 24.378-11.277 48.568-29.871 64.968l-13.607-13.608c-.102-.165-.201-.333-.313-.494zM239.223 81.173c18.743 16.145 29.741 39.841 29.741 64.752 0 24.379-11.277 48.568-29.871 64.968l-13.607-13.607c-.38-.619-1.155-1.664-2.521-3.851-10.998-17.495-15.265-38.491-12.802-58.158a85.765 85.765 0 0 1 29.06-54.104zm-90.321 93.538c-24.358-17.764-36.887-46.5-34.759-75.177 30.723-2.309 58.971 11.86 75.882 35.735-1.429 14.02-.08 29.495 4.584 44.214-14.761-5.072-30.289-6.606-45.707-4.772zm-52.213 48.996c27.716-32.179 76.05-40.095 112.377-14.555l15.89 15.89c-33.873 38.494-94.657 37.686-128.267-1.335zm91.924 91.924c27.697-32.156 76.022-40.111 112.377-14.556l15.89 15.89c-33.871 38.494-94.656 37.688-128.267-1.334zm91.923 91.924c27.7-32.156 76.022-40.112 112.379-14.555l15.889 15.889c-33.872 38.495-94.658 37.686-128.268-1.334zm128.797-26.422c-.102-.166-.2-.333-.313-.494-10.265-14.72-15.69-32.31-15.69-50.866 0-24.912 10.998-48.607 29.741-64.752 18.743 16.144 29.74 39.84 29.74 64.752 0 24.379-11.277 48.568-29.871 64.969l-13.607-13.609zM77.812 338.327c-19.299 0-35 15.701-35 35s15.701 35 35 35 35-15.701 35-35-15.702-35-35-35zm0 50c-8.271 0-15-6.729-15-15s6.729-15 15-15 15 6.729 15 15-6.729 15-15 15zm355-249.999c22.056 0 40-17.944 40-40s-17.944-40-40-40-40 17.944-40 40 17.944 40 40 40zm0-60c11.028 0 20 8.972 20 20s-8.972 20-20 20-20-8.972-20-20 8.971-20 20-20zm-210 349.999c-16.542 0-30 13.458-30 30s13.458 30 30 30 30-13.458 30-30-13.458-30-30-30zm0 40c-5.514 0-10-4.486-10-10s4.486-10 10-10 10 4.486 10 10-4.486 10-10 10z" fill="#c9872c" class="svgShape color000000-0 selectable"/><circle cx="352.812" cy="88.328" r="10" fill="#c9872c" class="svgShape color000000-1 selectable"/><path d="M109.883 305.398c3.905-3.905 3.905-10.237 0-14.143-3.905-3.905-10.237-3.905-14.142 0-3.905 3.905-3.905 10.237 0 14.143 3.905 3.906 10.237 3.906 14.142 0z" fill="#c9872c" class="svgShape color000000-2 selectable"/><circle cx="152.812" cy="438.327" r="10" fill="#c9872c" class="svgShape color000000-3 selectable"/><circle cx="412.812" cy="198.328" r="10" fill="#c9872c" class="svgShape color000000-4 selectable"/><circle cx="52.812" cy="88.328" r="10" fill="#c9872c" class="svgShape color000000-5 selectable"/><circle cx="152.812" cy="58.328" r="10" fill="#c9872c" class="svgShape color000000-6 selectable"/></svg></g></svg>